<svg width="28" height="28" viewBox="0 0 28 28" fill="none" xmlns="http://www.w3.org/2000/svg">
<path d="M14.2864 1.59015L14 1.39002L13.7136 1.59015L11.154 3.37877L8.04311 3.10956L7.69501 3.07943L7.54705 3.39596L6.22472 6.22472L3.39596 7.54705L3.07943 7.69501L3.10956 8.04311L3.37877 11.154L1.59015 13.7136L1.39002 14L1.59015 14.2864L3.37877 16.846L3.10956 19.9569L3.07943 20.305L3.39596 20.453L6.22472 21.7753L7.54705 24.604L7.69501 24.9206L8.04311 24.8904L11.154 24.6212L13.7136 26.4098L14 26.61L14.2864 26.4098L16.846 24.6212L19.9569 24.8904L20.305 24.9206L20.453 24.604L21.7753 21.7753L24.604 20.453L24.9206 20.305L24.8904 19.9569L24.6212 16.846L26.4098 14.2864L26.61 14L26.4098 13.7136L24.6212 11.154L24.8904 8.04311L24.9206 7.69501L24.604 7.54705L21.7753 6.22472L20.453 3.39596L20.305 3.07943L19.9569 3.10956L16.846 3.37877L14.2864 1.59015Z" fill="#FFE7E7" stroke="#F5C4C1"/>
<path d="M8.94775 13.7125L12.3887 17.0133L18.9165 10.8422" stroke="#DA291C" stroke-width="1.8" stroke-linecap="round"/>
</svg>
